<svg xmlns="http://www.w3.org/2000/svg" xmlns:xlink="http://www.w3.org/1999/xlink" width="1123" zoomAndPan="magnify" viewBox="0 0 842.25 595.499986" height="794" preserveAspectRatio="xMidYMid meet" version="1.2"><defs><filter x="0%" y="0%" width="100%" filterUnits="objectBoundingBox" id="435ebab72c" height="100%"><feColorMatrix values="0 0 0 0 1 0 0 0 0 1 0 0 0 0 1 0 0 0 1 0" type="matrix" in="SourceGraphic"/></filter><clipPath id="af0f89a847"><path d="M 224 0.691406 L 413 0.691406 L 413 385.992188 L 224 385.992188 Z M 224 0.691406 "/></clipPath><clipPath id="e019f0bc92"><path d="M 0.273438 0.691406 L 190 0.691406 L 190 385.992188 L 0.273438 385.992188 Z M 0.273438 0.691406 "/></clipPath><clipPath id="a54ee83279"><rect x="0" width="414" y="0" height="387"/></clipPath></defs><g id="7ffdb6dab3"><g mask="url(#0c0485e43a)" transform="matrix(1,0,0,1,214,104)"><g clip-path="url(#a54ee83279)"><g clip-rule="nonzero" clip-path="url(#af0f89a847)"><path style=" stroke:none;fill-rule:nonzero;fill:#c79646;fill-opacity:1;" d="M 257.949219 385.917969 C 248.335938 384.570312 246.515625 378.492188 243.324219 370.332031 C 246.460938 371.160156 249.140625 373.152344 251.890625 374.832031 C 256.398438 377.90625 262.109375 379.183594 267.417969 377.972656 C 253.878906 378.554688 247.820312 365.230469 234.984375 365.21875 C 231.984375 365.1875 229.015625 365.519531 226.078125 366.125 C 225.644531 366.164062 225.183594 366.375 224.761719 366.234375 C 224.515625 365.515625 224.433594 364.242188 224.554688 362.792969 C 230.007812 361.363281 235.714844 360.847656 241.0625 358.933594 C 252.003906 355.296875 256.292969 343.667969 256.574219 332.804688 C 255.746094 334.777344 255.441406 336.59375 255.046875 338.644531 C 254.03125 344.648438 250.582031 350.175781 245.652344 353.609375 C 247.007812 345.996094 244.121094 336.800781 250.328125 330.820312 C 253.226562 327.886719 257.050781 326.109375 259.636719 322.824219 C 262.089844 329.707031 267.597656 334.675781 264.554688 342.535156 C 262.367188 349.613281 255.523438 351.289062 250.796875 355.9375 C 257.511719 353.417969 264.648438 351.398438 270.222656 346.628906 C 279.074219 339.488281 282.9375 328.765625 283.429688 317.542969 C 282.945312 318.648438 282.644531 319.664062 282.390625 320.695312 C 280.75 329.324219 277.433594 337.839844 270.421875 343.359375 C 271.839844 337.074219 270.371094 330.582031 271.835938 324.320312 C 272.863281 320.5 275.511719 317.363281 278.429688 314.859375 C 281.085938 312.691406 284.050781 311.148438 286.664062 308.785156 C 291.042969 318.03125 296.140625 325.347656 287.617188 334.226562 C 283.53125 338.519531 277.925781 341.109375 274.269531 345.84375 C 274.503906 346.03125 274.667969 345.863281 274.8125 345.789062 C 276.988281 344.695312 279.195312 343.652344 281.324219 342.464844 C 295.339844 334.527344 312.355469 325.394531 315.136719 307.625 C 316.644531 299.503906 316.886719 290.707031 321.550781 283.640625 C 321.292969 283.453125 321.195312 283.6875 321.109375 283.804688 C 320.65625 284.410156 320.179688 285.003906 319.785156 285.648438 C 314.136719 294.324219 315.539062 306.097656 310.058594 314.648438 C 309.230469 304.75 304.953125 293.085938 312.9375 284.980469 C 316.121094 281.585938 320.160156 279.1875 323.519531 275.988281 C 325.285156 279.078125 327.777344 281.714844 329.382812 284.929688 C 332.421875 290.679688 332.15625 297.96875 328.25 303.222656 C 325.902344 306.515625 322.742188 309.023438 319.839844 311.765625 C 316.761719 314.5625 314.351562 317.988281 312.242188 321.578125 C 312.421875 321.816406 312.546875 321.679688 312.648438 321.601562 C 321.640625 314.3125 330.28125 306.566406 337.960938 297.832031 C 344.523438 291.65625 347.511719 282.972656 347.617188 273.980469 C 347.726562 265.992188 346.429688 257.683594 349.53125 250.089844 C 349.261719 250.101562 349.230469 250.359375 349.140625 250.523438 C 347.949219 252.753906 347.167969 255.132812 346.75 257.632812 C 345.4375 265.410156 346.878906 273.523438 344.257812 281.09375 C 341.824219 272.089844 335.953125 264.589844 339.714844 254.847656 C 342.007812 248.210938 348.363281 244.65625 352.03125 238.917969 C 352.136719 239.085938 352.242188 239.195312 352.28125 239.324219 C 353.078125 241.96875 354.800781 244.164062 356.0625 246.582031 C 361.125 254.785156 361.460938 261.730469 355.679688 269.691406 C 353.929688 272.109375 351.90625 274.414062 351.1875 277.40625 C 350.742188 279.367188 349.984375 281.257812 349.746094 283.246094 C 357.683594 272.875 364.859375 261.636719 369.378906 249.226562 C 371.535156 243.328125 369.996094 236.636719 367.070312 231.292969 C 364.15625 226.007812 360.808594 220.964844 358.3125 215.449219 C 356.585938 211.917969 355.886719 208.089844 354.894531 204.328125 C 355.335938 214.519531 360.402344 223.46875 364.84375 232.328125 C 364.707031 232.542969 364.566406 232.457031 364.449219 232.382812 C 362.664062 231.265625 360.871094 230.167969 359.109375 229.011719 C 347.425781 221.84375 346.363281 204.742188 353.628906 193.929688 C 355.320312 196.09375 357.425781 197.863281 359.796875 199.222656 C 367.964844 203.132812 372.003906 209.84375 370.851562 219.117188 C 370.410156 223.386719 369.453125 227.714844 370.527344 231.972656 C 371.273438 234.457031 372.351562 236.699219 372.84375 239.398438 C 377.195312 228.339844 379.730469 216.414062 381.027344 204.539062 C 382.464844 189.773438 374.882812 174.140625 361.988281 167.054688 C 359.648438 165.816406 357.390625 164.507812 355.363281 162.773438 C 355.386719 163.523438 357.96875 165.492188 358.683594 165.96875 C 366.550781 170.726562 373.226562 177.714844 375.902344 186.804688 C 370.753906 182.933594 364.074219 183.246094 358.574219 180.234375 C 352.089844 176.589844 351.804688 171.578125 350.316406 164.972656 C 349.726562 162.761719 348.867188 160.65625 347.378906 158.90625 C 360.953125 150.953125 378.292969 157.671875 379.046875 174.722656 C 379.449219 178.601562 379.136719 182.695312 380.917969 186.269531 C 381.308594 187.027344 381.539062 187.878906 381.960938 188.621094 C 382.238281 188.550781 382.171875 188.363281 382.167969 188.238281 C 382.128906 182.96875 382.085938 177.699219 381.722656 172.441406 C 380.734375 161.648438 380.816406 146.398438 373.296875 138.109375 C 366.902344 130.636719 358.796875 125.917969 349.324219 123.863281 C 347.132812 123.210938 345.027344 122.332031 343.015625 121.21875 C 342.828125 121.117188 342.640625 121.027344 342.359375 121.046875 C 344.726562 123.605469 348.144531 124.726562 351.300781 125.90625 C 358.652344 128.25 365.375 132.324219 370.195312 138.546875 C 370.058594 138.855469 369.851562 138.757812 369.699219 138.726562 C 367.226562 138.257812 364.722656 138.179688 362.226562 138.046875 C 345.035156 137.953125 340.132812 130.300781 334.640625 114.921875 C 336.238281 115.433594 337.710938 115.734375 339.363281 115.496094 C 343.144531 114.964844 346.757812 113.65625 350.46875 112.792969 C 360.144531 110.316406 366.359375 120.269531 370.085938 127.863281 C 371.742188 131.316406 373.140625 135.03125 376.074219 137.59375 C 372.25 123.648438 367.839844 109.085938 359.097656 97.46875 C 353.863281 91.679688 345.992188 89.105469 338.507812 88.175781 C 333.21875 87.589844 327.902344 88.488281 322.601562 88.128906 C 321.335938 88.058594 320.078125 87.863281 318.8125 87.730469 C 318.578125 87.707031 318.335938 87.707031 318.078125 87.835938 C 321.09375 88.757812 324.191406 89.210938 327.332031 89.242188 C 335.320312 89.425781 343.777344 89.980469 350.589844 94.691406 C 345.972656 95.992188 341.433594 97.871094 336.726562 98.988281 C 323.699219 102.378906 315.875 92.992188 308.339844 83.777344 C 308.433594 83.503906 308.609375 83.554688 308.742188 83.554688 C 311.019531 83.523438 313.191406 82.992188 315.257812 82.050781 C 324.917969 77.199219 330.652344 73.023438 341.214844 79.550781 C 346.027344 82.535156 348.730469 88.0625 353.820312 90.625 C 354.863281 91.140625 355.640625 91.726562 356.761719 92.179688 C 352.269531 84.601562 346.601562 77.980469 340.820312 71.425781 C 336.46875 66.613281 333.066406 63.800781 326.425781 63.402344 C 319.113281 62.441406 311.785156 63.816406 304.480469 63.171875 C 303.257812 63.003906 302.0625 62.710938 300.878906 62.347656 C 300.679688 62.285156 300.464844 62.269531 300.214844 62.355469 C 309.296875 66.707031 319.988281 62.246094 329.160156 66.464844 C 329.210938 66.730469 329.0625 66.777344 328.925781 66.828125 C 324.996094 68.300781 321.476562 70.78125 317.351562 71.71875 C 307.800781 74.273438 297.625 69.265625 292.316406 61.023438 C 292.097656 60.675781 291.875 60.316406 291.933594 59.859375 C 299.21875 53.429688 308.277344 50.328125 317.335938 55 C 321.972656 57.398438 326.125 60.898438 331.339844 61.929688 C 319.9375 50.292969 306.949219 38.902344 291.585938 33.066406 C 281.710938 29.785156 272.441406 36.34375 264.445312 41.539062 C 265.960938 41.25 267.25 40.375 268.628906 39.726562 C 274.519531 36.445312 281.246094 33.472656 288.023438 33.992188 C 284.550781 36.625 281.347656 39.746094 277.625 42.070312 C 271.625 45.910156 263.933594 45.734375 257.421875 43.363281 C 257.613281 43.132812 257.707031 42.976562 257.839844 42.871094 C 260.261719 40.953125 261.765625 38.1875 263.503906 35.671875 C 267.667969 29.128906 275.574219 27.726562 282.59375 29.347656 C 284.328125 29.625 286.003906 30.097656 287.765625 30.171875 C 282.847656 27.179688 277.128906 25.195312 271.78125 22.941406 C 261.683594 18.46875 253.957031 24.507812 248.003906 32.507812 C 248.226562 32.699219 248.355469 32.472656 248.464844 32.378906 C 252.15625 28.996094 256.074219 25.261719 260.980469 24.078125 C 257.410156 33.382812 252.707031 37.71875 242.542969 37.253906 C 243.035156 28.023438 246.128906 22.609375 255.5 20.996094 C 257.886719 20.539062 260.144531 20.4375 262.523438 19.789062 C 256.820312 17.980469 250.957031 16.707031 244.988281 16.476562 C 240.847656 16.394531 236.75 16.582031 232.640625 16.007812 C 233.40625 16.417969 234.070312 16.527344 234.726562 16.648438 C 238.855469 17.488281 242.980469 17.445312 247.167969 17.792969 C 242.738281 20.832031 237.804688 22.503906 232.695312 20.234375 C 230.535156 19.195312 228.171875 16.777344 226.464844 14.851562 C 229.34375 12.644531 232.816406 10.914062 236.398438 10.164062 C 239.523438 9.453125 242.46875 10.816406 244.988281 12.601562 C 247.042969 14.019531 249.292969 14.886719 251.726562 15.25 C 257.539062 16.121094 263.242188 17.472656 268.828125 19.339844 C 269.222656 19.417969 269.664062 19.738281 270.058594 19.53125 C 264.203125 14.214844 262.027344 8.824219 263.828125 0.878906 C 267.1875 0.742188 270.207031 3.039062 271.820312 5.96875 C 273.917969 9.734375 273.90625 14.148438 274.089844 18.359375 C 270.832031 15.730469 268.46875 11.851562 267.386719 7.75 C 267.109375 6.992188 267.097656 6.097656 266.550781 5.476562 C 267.332031 12.355469 270.585938 19.277344 277.035156 22.25 C 284.296875 25.5625 291.574219 28.835938 298.488281 32.875 C 298.6875 32.625 298.484375 32.5 298.382812 32.378906 C 297.460938 31.277344 296.519531 30.191406 295.605469 29.082031 C 287.621094 20.691406 286.972656 12.597656 290.316406 1.777344 C 298.140625 3.871094 304.886719 10.65625 305.054688 19.238281 C 305.421875 23.6875 304.035156 28.007812 303.914062 32.421875 C 303.648438 32.546875 303.546875 32.363281 303.433594 32.222656 C 301.253906 29.539062 299.371094 26.652344 297.890625 23.507812 C 295.675781 18.796875 295.90625 13.292969 293.707031 8.585938 C 294.847656 13.835938 294.695312 19.484375 296.925781 24.5 C 299.371094 30.980469 303.84375 36.105469 309.476562 39.917969 C 315.003906 43.84375 320.195312 48.1875 325.28125 52.683594 C 325.464844 52.359375 325.230469 52.199219 325.132812 52.023438 C 322.523438 47.160156 320.296875 41.917969 319.992188 36.308594 C 319.476562 30.886719 322.679688 26.257812 324.953125 21.644531 C 325.199219 21.53125 325.328125 21.699219 325.460938 21.816406 C 330.039062 25.671875 333.519531 31.023438 333.554688 37.25 C 333.996094 43.113281 331.101562 48.480469 330.972656 54.25 C 330.671875 54.332031 330.636719 54.105469 330.558594 53.949219 C 329.011719 50.707031 327.902344 47.3125 327.246094 43.769531 C 326.160156 38.761719 327.054688 33.597656 326.191406 28.601562 C 325.707031 37.953125 324.144531 42.980469 327.914062 52.234375 C 332.058594 62.714844 342.628906 68.382812 348.746094 77.578125 C 350.53125 79.828125 352.101562 81.96875 353.925781 84.238281 C 352.816406 79.984375 350.125 76.527344 347.832031 72.890625 C 339.191406 59.597656 340.839844 52.34375 347.125 38.625 C 354.0625 44.292969 358.019531 54.027344 356.269531 63.058594 C 355.660156 66.25 354.902344 69.429688 354.246094 72.609375 C 353.964844 72.710938 353.917969 72.523438 353.863281 72.40625 C 350.773438 65.71875 347.804688 58.488281 348.496094 50.933594 C 348.632812 48.957031 348.894531 47.324219 348.4375 45.257812 C 348.339844 46.253906 348.300781 47.035156 348.171875 47.800781 C 346.316406 55.109375 346.613281 59.902344 349.375 66.917969 C 355.847656 86.300781 367.703125 103.132812 374.484375 122.375 C 377.433594 109.859375 364.601562 101.234375 367.726562 89.027344 C 369.082031 83.015625 373.425781 78.035156 373.511719 71.660156 C 378.78125 74.824219 382.734375 80.347656 384.628906 86.265625 C 387.519531 95.042969 383.058594 103.839844 378.21875 110.90625 C 376.929688 104.316406 376.042969 97.605469 376.515625 90.875 C 376.5625 87.996094 376.933594 85.027344 376.171875 82.21875 C 376.164062 88.691406 374.203125 95.035156 375.015625 101.539062 C 375.769531 107.941406 377.027344 114.289062 376.785156 120.773438 C 376.691406 133.328125 381.019531 145.261719 382.9375 157.566406 C 383.488281 156.800781 383.136719 153.585938 383.21875 152.433594 C 383.324219 141.515625 380.425781 128.171875 389.644531 120.128906 C 392.679688 117.246094 396.707031 115.804688 399.730469 112.917969 C 400.136719 113.042969 400.214844 113.402344 400.34375 113.695312 C 403.496094 121.171875 404.714844 130.917969 399.316406 137.632812 C 395.84375 141.832031 391.148438 144.738281 387.933594 149.183594 C 388.175781 141.105469 390.707031 133.019531 394.878906 126.117188 C 396.003906 124.023438 397.527344 122.089844 398.101562 119.738281 C 397.855469 119.652344 397.835938 119.847656 397.789062 119.9375 C 396.960938 121.53125 395.941406 122.988281 394.863281 124.40625 C 391.601562 128.324219 389.191406 132.742188 387.808594 137.6875 C 385.40625 145.21875 385.199219 153.171875 385.476562 161.027344 C 385.609375 169.875 384.867188 178.726562 385.160156 187.578125 C 385.445312 187.664062 385.488281 187.460938 385.550781 187.289062 C 386.964844 183.460938 387.695312 179.429688 388.683594 175.476562 C 390.707031 166.898438 396.941406 162.15625 405.398438 161.445312 C 407.75 161.199219 410.078125 160.992188 412.398438 160.484375 C 413.308594 164.246094 411.953125 168.371094 410.476562 171.820312 C 407.183594 179.707031 399.453125 182.582031 391.773438 184.066406 C 393.484375 179.75 396.570312 176.058594 399.761719 172.742188 C 402.207031 170.1875 405.3125 168.582031 407.871094 166.15625 C 402.898438 168.777344 397.570312 171.257812 394.046875 175.972656 C 387.394531 184.582031 385.101562 195.792969 383.773438 206.453125 C 389.515625 201.507812 390.191406 191.222656 398.351562 189.355469 C 402.3125 188.351562 406.222656 190.136719 410.113281 190.722656 C 406.355469 197.382812 404.40625 204.464844 395.476562 204.949219 C 393.324219 205.007812 391.136719 204.953125 389.074219 205.652344 C 388.867188 205.394531 389.058594 205.265625 389.164062 205.148438 C 393.101562 200.589844 397.730469 196.667969 403.230469 194.261719 C 394.472656 195.511719 387.054688 202.886719 384.15625 211.246094 C 381.976562 216.878906 381.558594 222.988281 379.726562 228.730469 C 378.8125 231.71875 377.898438 234.703125 376.988281 237.691406 C 376.90625 237.964844 376.6875 238.226562 376.886719 238.5625 C 381.597656 234.605469 383.269531 228.234375 386.410156 223.082031 C 389.601562 216.933594 396.25 213.496094 402.960938 213.621094 C 406.285156 213.675781 409.542969 214.195312 412.867188 214.332031 C 407.296875 223.5 406.09375 236.464844 394.566406 240.15625 C 389.488281 242.078125 384.050781 241.488281 378.835938 242.824219 C 385.59375 234.679688 395.46875 230 402.125 221.8125 C 401.917969 221.617188 401.816406 221.804688 401.730469 221.882812 C 399.066406 224.421875 396.066406 226.496094 393.015625 228.503906 C 386.613281 232.429688 380.800781 237.234375 376.207031 243.28125 C 374.394531 245.597656 372.964844 248.140625 371.925781 250.902344 C 370.253906 255.628906 367.890625 259.984375 365.867188 264.542969 C 368.636719 262.714844 371.289062 260.742188 373.464844 258.203125 C 377.671875 252.925781 381.878906 247.566406 389.3125 248.863281 C 392.691406 249.335938 395.6875 250.761719 399.140625 251.039062 C 398.667969 251.980469 397.984375 252.703125 397.46875 253.605469 C 396.246094 255.785156 395.132812 258.0625 393.421875 259.90625 C 388.035156 266.316406 380.847656 264.867188 373.550781 264.167969 C 373.488281 263.96875 373.683594 263.894531 373.832031 263.808594 C 377.160156 261.832031 380.457031 259.804688 383.890625 258.023438 C 385.722656 257.074219 387.625 256.285156 389.539062 255.519531 C 390.039062 255.316406 390.578125 255.164062 391.085938 254.71875 C 380.683594 257.382812 367.855469 263.691406 361.332031 272.640625 C 357.3125 278.613281 353.15625 284.488281 348.589844 290.039062 C 348.820312 290.21875 348.976562 290.089844 349.136719 290 C 354.957031 286.960938 359.875 282.554688 365.019531 278.496094 C 370.089844 273.941406 377.46875 270.902344 383.835938 274.550781 C 386.78125 276.253906 389.285156 278.4375 392.257812 280.128906 C 385 285.078125 380.089844 293.777344 371.277344 296.132812 C 364.792969 297.941406 358.609375 294.738281 352.414062 293.253906 C 360.246094 286.691406 370.085938 284.308594 379.914062 282.835938 C 381.511719 282.441406 383.355469 282.371094 384.699219 281.335938 C 381.179688 282.277344 377.519531 282.308594 373.925781 282.804688 C 366.0625 283.667969 358.726562 286.722656 351.796875 290.496094 C 346.859375 292.964844 343.503906 297.527344 339.394531 301.121094 C 332.074219 308.390625 324.609375 315.566406 316.925781 322.378906 C 321.515625 321.203125 325.152344 318.019531 328.851562 315.191406 C 342.320312 304.273438 350.597656 307.507812 365.683594 311.375 C 357.546875 320.675781 349.433594 336.550781 334.90625 333.132812 C 330.074219 332.164062 326.382812 328.527344 322.148438 326.214844 C 334.398438 322.953125 345.34375 325.484375 355.921875 315.949219 C 355.625 315.753906 355.46875 315.996094 355.292969 316.097656 C 354.023438 316.824219 352.773438 317.585938 351.5 318.308594 C 340.90625 324.488281 328.105469 321.175781 316.839844 324.933594 C 313.542969 326.214844 310.265625 327.738281 307.351562 329.78125 C 301.183594 334.46875 294.546875 338.46875 288.207031 342.832031 C 301.292969 341.425781 314.636719 329.097656 327.476562 337.714844 C 330.816406 339.875 333.601562 342.828125 336.726562 345.246094 C 328.574219 351.167969 318.332031 355.574219 308.5625 350.988281 C 304.484375 349.222656 300.699219 346.683594 296.386719 345.535156 C 296.335938 345.222656 296.550781 345.21875 296.714844 345.179688 C 301.816406 343.914062 307.0625 343.75 312.28125 343.410156 C 317.203125 343.3125 322.15625 343.886719 326.941406 345.058594 C 327.113281 345.097656 327.296875 345.101562 327.503906 344.972656 C 315.78125 341.292969 302.886719 341.199219 291.003906 344.210938 C 284.285156 346.453125 277.699219 349.222656 271.3125 352.316406 C 271.390625 352.726562 271.671875 352.617188 271.859375 352.621094 C 276.785156 352.882812 281.355469 350.835938 286.050781 349.636719 C 291.394531 348.207031 297.691406 349.09375 301.835938 353.035156 C 305.308594 356.558594 307.328125 361.226562 309.851562 365.449219 C 299.140625 368.726562 289.652344 375.554688 279.226562 366.75 C 276.335938 364.152344 273.988281 361.023438 271.105469 358.410156 C 277.9375 357.535156 285.003906 359.042969 291.5625 361.066406 C 294.554688 362.039062 297.59375 362.882812 300.757812 362.917969 C 301.117188 362.9375 301.503906 362.960938 301.875 362.675781 C 299.878906 362.417969 297.949219 362.257812 296.101562 361.445312 C 290.144531 358.972656 284.097656 356.65625 277.640625 356.089844 C 272.265625 355.5625 266.75 355.050781 261.511719 356.710938 C 254.507812 359.015625 247.601562 361.613281 240.460938 363.488281 C 240.523438 363.804688 240.789062 363.796875 240.957031 363.851562 C 245.347656 365.304688 249.824219 366.273438 254.476562 366.21875 C 258.507812 366.289062 262.898438 366.328125 266.382812 368.664062 C 270.515625 371.308594 272.707031 375.996094 275.136719 380.132812 C 270.660156 381.566406 266.847656 384.601562 262.140625 385.347656 C 261.371094 385.496094 260.589844 385.59375 259.816406 385.726562 C 259.207031 385.921875 258.589844 385.941406 257.953125 385.917969 Z M 257.949219 385.917969 "/></g><g clip-rule="nonzero" clip-path="url(#e019f0bc92)"><path style=" stroke:none;fill-rule:nonzero;fill:#c79646;fill-opacity:1;" d="M 154.796875 385.917969 C 151.621094 385.371094 148.472656 384.753906 145.570312 383.265625 C 143.257812 382.167969 141.167969 380.855469 138.664062 380.121094 C 140.089844 377.605469 141.582031 375.144531 143.1875 372.75 C 146.953125 367.230469 152.558594 366.1875 158.742188 366.210938 C 163.828125 366.25 168.792969 365.394531 173.566406 363.5625 C 164.164062 361.433594 155.472656 356.558594 145.855469 355.59375 C 137.988281 355.503906 130.007812 356.429688 122.675781 359.472656 C 119.160156 360.867188 115.742188 362.546875 111.898438 362.648438 C 115.355469 363.773438 120.984375 361.199219 124.523438 360.390625 C 130.421875 358.671875 136.578125 357.757812 142.710938 358.316406 C 138.316406 362.417969 134.882812 368.140625 128.898438 370.089844 C 120.214844 373.414062 112.136719 367.695312 103.972656 365.453125 C 106.539062 361.359375 108.390625 356.695312 111.808594 353.210938 C 115.953125 349.09375 122.316406 348.199219 127.75 349.632812 C 132.414062 350.800781 136.9375 352.863281 141.828125 352.625 C 142.066406 352.621094 142.359375 352.730469 142.542969 352.355469 C 138.773438 350.445312 134.90625 348.714844 130.9375 347.265625 C 126.09375 345.210938 121.183594 343.386719 115.933594 342.8125 C 106.582031 341.570312 96.9375 341.957031 87.808594 344.457031 C 87.316406 344.609375 86.832031 344.796875 86.378906 345.109375 C 91.316406 344.035156 96.378906 343.308594 101.441406 343.414062 C 106.75 343.859375 112.316406 343.722656 117.402344 345.367188 C 117.453125 345.605469 117.242188 345.574219 117.128906 345.605469 C 113.621094 346.601562 110.472656 348.507812 107.203125 350.089844 C 96.277344 355.839844 86.453125 351.90625 77.078125 345.222656 C 79.554688 343.179688 82.019531 341.09375 84.484375 339.03125 C 97.699219 328.105469 111.722656 341.113281 125.601562 342.832031 C 121.242188 339.695312 116.550781 337.066406 112.195312 333.878906 C 108.265625 331.171875 104.578125 328.035156 100.105469 326.292969 C 88.304688 320.328125 73.914062 325.144531 62.355469 318.328125 C 60.742188 317.511719 59.320312 316.332031 57.625 315.707031 C 63.867188 321.394531 72.074219 323.769531 80.292969 324.324219 C 84.082031 324.8125 88 324.921875 91.632812 326.207031 C 86.957031 328.972656 82.660156 332.90625 77.050781 333.472656 C 63.253906 335.074219 56.242188 320.273438 48.132812 311.535156 C 48.199219 311.4375 48.230469 311.335938 48.277344 311.328125 C 52.183594 310.648438 55.925781 309.246094 59.796875 308.410156 C 69.898438 306.101562 78.164062 309.375 85.929688 315.941406 C 89.332031 318.539062 92.710938 321.394531 96.964844 322.351562 C 87.03125 313.746094 77.75 304.421875 68.347656 295.226562 C 66.914062 293.703125 65.296875 292.40625 63.503906 291.363281 C 55.78125 286.785156 47.304688 283.46875 38.359375 282.597656 C 35.152344 282.246094 32.132812 282.070312 28.933594 281.328125 C 30.441406 282.261719 32.164062 282.460938 33.851562 282.828125 C 36.714844 283.367188 39.589844 283.863281 42.445312 284.429688 C 49.378906 285.648438 55.675781 288.96875 61.332031 293.152344 C 61.246094 293.460938 61.023438 293.394531 60.863281 293.425781 C 52.871094 295.527344 45.78125 299.070312 37.851562 294.160156 C 31.664062 290.410156 27.46875 284.183594 21.503906 280.117188 C 24.039062 278.8125 26.199219 276.9375 28.574219 275.371094 C 35.453125 270.597656 43.300781 273.496094 49.027344 278.667969 C 54.25 282.828125 59.285156 287.339844 65.292969 290.289062 C 60.972656 284.523438 56.449219 278.808594 52.523438 272.695312 C 46.226562 263.816406 32.894531 257.242188 22.632812 254.707031 C 25.128906 256.03125 27.523438 256.742188 29.953125 258.050781 C 33.613281 259.945312 36.855469 261.957031 40.457031 264.09375 C 40.140625 264.179688 40.015625 264.246094 39.894531 264.242188 C 38.28125 264.222656 36.691406 264.46875 35.09375 264.636719 C 28.359375 265.914062 21.550781 263.082031 18.175781 256.871094 C 17.0625 254.941406 16.082031 252.917969 14.726562 251.164062 C 18.046875 250.5625 21.363281 249.363281 24.742188 248.820312 C 33.105469 247.554688 36.816406 254.335938 41.773438 259.691406 C 43.613281 261.511719 45.730469 263.0625 47.859375 264.519531 C 48.039062 264.269531 47.851562 264.121094 47.777344 263.980469 C 45.527344 259.621094 43.492188 255.164062 41.75 250.566406 C 38.472656 242.496094 31.894531 236.253906 25.019531 231.289062 C 20.441406 228.21875 15.691406 225.359375 11.664062 221.523438 C 11.480469 221.730469 11.636719 221.847656 11.722656 221.945312 C 12.292969 222.601562 12.847656 223.273438 13.453125 223.894531 C 19.992188 230.800781 28.816406 235.273438 34.769531 242.71875 C 32.5625 242.304688 30.363281 241.871094 28.097656 241.808594 C 19.628906 241.582031 11.535156 237.820312 7.957031 229.585938 C 5.535156 224.570312 3.972656 219.128906 0.90625 214.453125 C 12.625 212.773438 22.582031 212.785156 28.542969 225.074219 C 31 229.796875 32.847656 235.035156 36.90625 238.628906 C 37.210938 238.421875 36.996094 238.210938 36.941406 238.03125 C 35.996094 234.9375 35.042969 231.84375 34.097656 228.75 C 32.402344 223.558594 32.007812 218.039062 30.214844 212.882812 C 29.097656 209.210938 27.414062 205.671875 24.886719 202.78125 C 21.0625 198.761719 16.28125 194.691406 10.585938 194.320312 C 16.269531 196.691406 21.046875 200.820312 24.972656 205.59375 C 24.730469 205.59375 24.578125 205.628906 24.457031 205.589844 C 21.898438 204.703125 19.191406 205.207031 16.566406 204.746094 C 8.816406 203.34375 7.230469 196.71875 3.714844 190.796875 C 9.867188 189.308594 16.519531 187.054688 21.25 193.035156 C 22.546875 194.722656 23.582031 196.582031 24.523438 198.492188 C 25.855469 201.398438 27.796875 203.917969 29.820312 206.339844 C 30.117188 206.273438 30.023438 206.09375 30.011719 205.964844 C 28.773438 196.660156 26.820312 187.121094 21.957031 179.023438 C 19.3125 174.792969 15.710938 171.210938 11.28125 168.996094 C 9.640625 168.160156 7.980469 167.378906 6.457031 166.328125 C 6.414062 166.296875 6.324219 166.339844 6.15625 166.359375 C 6.464844 166.644531 6.710938 166.914062 6.992188 167.128906 C 13.316406 171.441406 18.839844 176.84375 22.074219 183.957031 C 21.972656 184.007812 21.902344 184.078125 21.847656 184.0625 C 18.613281 183.171875 15.273438 182.546875 12.230469 181.058594 C 4.894531 177.582031 0.273438 168.664062 1.367188 160.527344 C 13.128906 162.195312 21.304688 161.855469 25.175781 175.632812 C 26.234375 179.738281 26.878906 183.878906 28.542969 187.804688 C 29 179.378906 28.324219 170.960938 28.3125 162.523438 C 28.367188 157.035156 28.65625 151.519531 27.863281 146.0625 C 26.789062 139.253906 24.910156 132.320312 20.742188 126.765625 C 18.875 124.390625 17.105469 121.96875 15.644531 119.3125 C 15.835938 121.03125 16.90625 122.414062 17.613281 123.929688 C 22.554688 131.398438 25.4375 140.050781 25.925781 149.046875 C 25.660156 149.144531 25.609375 148.953125 25.535156 148.84375 C 22.648438 144.707031 18.308594 142.011719 15.023438 138.25 C 8.957031 131.417969 10.078125 120.625 13.929688 112.960938 C 14.023438 112.980469 14.113281 112.96875 14.15625 113.007812 C 15.855469 114.644531 17.941406 115.726562 19.898438 116.984375 C 27.90625 121.34375 31.570312 130.148438 30.910156 139.148438 C 30.738281 143.34375 30.882812 147.546875 30.628906 151.742188 C 30.589844 153.585938 30.476562 155.464844 30.707031 157.300781 C 31.046875 157.253906 30.988281 157.019531 31.015625 156.863281 C 31.976562 151.257812 33.148438 145.703125 34.382812 140.160156 C 36.394531 132.90625 37.195312 125.390625 37.0625 117.859375 C 36.960938 110.390625 39.40625 103.132812 38.886719 95.652344 C 38.789062 91.632812 37.824219 87.710938 37.628906 83.707031 C 37.617188 83.460938 37.71875 83.164062 37.414062 82.96875 C 36.832031 87.953125 37.65625 93.023438 37.332031 98.042969 C 37.148438 102.40625 36.328125 106.652344 35.625 110.949219 C 31.816406 105.234375 28.066406 98.753906 28.296875 91.597656 C 28.660156 83.453125 33.617188 76.027344 40.183594 71.65625 C 40.277344 71.769531 40.355469 71.824219 40.355469 71.878906 C 40.390625 74.046875 40.929688 76.109375 41.695312 78.105469 C 43.542969 82.820312 46.480469 87.25 46.570312 92.492188 C 46.804688 103.570312 36.78125 110.234375 39.351562 122.308594 C 46.648438 101.925781 59.34375 84.058594 65.695312 63.257812 C 68.027344 55.898438 66.316406 52.570312 65.324219 45.597656 C 64.871094 48.386719 65.480469 51.292969 65.371094 54.117188 C 65.089844 60.613281 62.660156 67.09375 59.675781 72.710938 C 59.46875 72.679688 59.523438 72.488281 59.496094 72.363281 C 58.9375 69.792969 58.386719 67.21875 57.832031 64.648438 C 55.449219 55.085938 59.328125 44.796875 66.640625 38.5625 C 73.023438 51.910156 74.5 59.988281 65.992188 72.878906 C 63.820312 76.207031 61.496094 79.480469 60.140625 83.269531 C 60.089844 83.507812 59.921875 83.734375 60.066406 83.980469 C 65.820312 76.519531 71.652344 69.066406 78.675781 62.796875 C 85.769531 56.300781 89.160156 46.21875 88.269531 36.628906 C 88.011719 33.832031 87.597656 31.167969 87.699219 28.328125 C 87.363281 29.148438 87.320312 29.921875 87.304688 30.703125 C 87.246094 38.683594 87.121094 47.230469 82.988281 54.207031 C 82.625 50.472656 81.460938 46.707031 80.695312 42.972656 C 78.851562 34.808594 82.132812 26.394531 88.773438 21.542969 C 90.207031 24.066406 91.433594 26.710938 92.667969 29.34375 C 95.914062 37.238281 91.957031 45.734375 88.316406 52.738281 C 93.5 48.546875 98.414062 44.039062 103.910156 40.226562 C 106.230469 38.554688 108.453125 36.742188 110.507812 34.734375 C 115.542969 29.445312 118.535156 22.144531 119.109375 14.8125 C 119.273438 13.023438 119.527344 11.253906 119.992188 9.515625 C 120.027344 9.378906 120.011719 9.226562 119.914062 9.046875 C 118.230469 12.753906 118.117188 16.957031 116.914062 20.828125 C 115.546875 25.167969 112.984375 29.085938 110.085938 32.515625 C 109.46875 28.03125 108.464844 23.28125 108.800781 18.632812 C 109.195312 10.3125 115.84375 3.992188 123.34375 1.765625 C 126.117188 9.074219 126.539062 18.171875 121.671875 24.761719 C 119.609375 27.632812 117.230469 30.070312 115.070312 32.878906 C 121.15625 29.769531 127.117188 26.445312 133.445312 23.808594 C 141.796875 20.785156 146.386719 14.355469 147.246094 5.421875 C 146.753906 6.195312 146.621094 7.140625 146.347656 8.007812 C 145.214844 12.105469 142.917969 15.738281 139.691406 18.371094 C 139.742188 11.035156 141.046875 1.433594 149.910156 0.804688 C 151.964844 8.367188 149.476562 14.679688 143.632812 19.554688 C 143.722656 19.84375 143.875 19.675781 143.984375 19.65625 C 147.324219 18.550781 150.691406 17.542969 154.121094 16.761719 C 159.058594 15.375 164.574219 15.726562 168.878906 12.550781 C 175.09375 7.5625 181.535156 10.96875 187.375 14.730469 C 186.3125 16.226562 184.75 17.332031 183.476562 18.660156 C 181.6875 20.339844 179.480469 21.011719 177.132812 21.226562 C 173.195312 21.753906 169.972656 19.828125 166.632812 17.84375 C 167.914062 17.53125 169.105469 17.683594 170.390625 17.570312 C 173.941406 17.28125 177.644531 17.34375 181.003906 16.011719 C 177.359375 16.417969 173.707031 16.535156 170.039062 16.453125 C 163.683594 16.496094 157.433594 17.898438 151.367188 19.738281 C 154.027344 20.6875 156.769531 20.605469 159.492188 21.238281 C 168.042969 22.992188 170.972656 28.816406 171.207031 37.179688 C 165.253906 37.914062 158.804688 35.480469 155.6875 30.007812 C 154.671875 28.089844 153.636719 26.117188 152.824219 24.105469 C 153.085938 23.9375 153.277344 24.109375 153.476562 24.183594 C 158.371094 25.832031 162.109375 29.398438 165.875 32.835938 C 166.03125 32.523438 165.789062 32.441406 165.6875 32.316406 C 160.808594 25.789062 153.390625 19.230469 144.8125 22.03125 C 138.644531 23.984375 132.765625 26.800781 126.898438 29.542969 C 126.675781 29.695312 126.03125 29.886719 126.097656 30.136719 C 128.222656 30.121094 130.34375 29.410156 132.460938 29.136719 C 138.589844 27.894531 145.574219 29.34375 149.53125 34.585938 C 151.628906 37.609375 153.527344 40.816406 156.277344 43.246094 C 156.175781 43.535156 155.882812 43.550781 155.660156 43.636719 C 149.984375 45.511719 143.414062 45.730469 137.945312 43.050781 C 133.410156 40.757812 129.800781 37.015625 125.75 34 C 125.875 33.757812 126.082031 33.851562 126.242188 33.855469 C 130.316406 33.933594 134.253906 34.710938 138.050781 36.230469 C 142.089844 37.636719 145.449219 40.460938 149.570312 41.605469 C 143.191406 37.644531 136.855469 32.9375 129.203125 32.25 C 113.515625 31.859375 93.335938 51.328125 82.292969 61.921875 C 86.359375 61.222656 89.808594 58.988281 93.246094 56.804688 C 103.242188 50.179688 113.152344 52.121094 121.867188 59.871094 C 117.269531 69.921875 103.738281 75.1875 93.65625 70.820312 C 90.589844 69.546875 87.605469 67.992188 84.601562 66.609375 C 93.875 61.855469 105.476562 67.175781 114.585938 61.832031 C 111.714844 62.8125 108.792969 63.515625 105.746094 63.382812 C 99.035156 63.136719 92.285156 62.660156 85.601562 63.632812 C 79.566406 64.101562 75.277344 68.769531 71.507812 73.152344 C 66.4375 79.1875 61.136719 85.070312 57.199219 91.980469 C 57.410156 91.957031 57.523438 91.976562 57.605469 91.933594 C 58.625 91.375 59.636719 90.800781 60.660156 90.242188 C 65.058594 87.816406 67.546875 83.058594 71.660156 80.21875 C 78.304688 75.105469 86.527344 75.128906 93.511719 79.515625 C 97.296875 81.601562 101.15625 83.519531 105.523438 83.664062 C 95.300781 96.5 87.742188 103.683594 70.984375 97.199219 C 68.457031 96.238281 65.871094 95.511719 63.269531 94.804688 C 63.371094 94.425781 63.667969 94.328125 63.90625 94.183594 C 68.289062 91.621094 73.21875 90.105469 78.253906 89.714844 C 84.058594 88.960938 90.230469 89.914062 95.765625 87.695312 C 83.886719 89.085938 72.941406 85.960938 61.710938 92.1875 C 58.523438 93.832031 55.53125 96.066406 53.453125 99.070312 C 45.746094 110.617188 41.339844 124.195312 37.714844 137.570312 C 40.402344 135.328125 41.78125 132.035156 43.230469 128.910156 C 46.964844 121.078125 53.1875 110.335938 63.21875 112.761719 C 66.894531 113.625 70.476562 114.882812 74.210938 115.460938 C 75.726562 115.675781 77.191406 115.574219 78.632812 115.066406 C 78.769531 115.035156 78.917969 114.929688 79.054688 115.019531 C 76.066406 124.378906 70.859375 135.476562 60.195312 137.148438 C 54.746094 138.203125 49.167969 137.917969 43.699219 138.773438 C 43.621094 138.359375 43.898438 138.175781 44.074219 137.960938 C 48.382812 132.726562 54.171875 128.847656 60.488281 126.621094 C 64.441406 125.222656 68.472656 123.960938 71.652344 121.042969 C 71.390625 120.996094 71.304688 120.949219 71.257812 120.976562 C 68.40625 122.617188 65.34375 123.695312 62.1875 124.539062 C 53.308594 126.476562 45.679688 131.953125 39.828125 138.917969 C 31.769531 147.828125 31.800781 176.199219 31.707031 188.59375 C 32.007812 188.582031 32.015625 188.347656 32.082031 188.195312 C 32.371094 187.535156 32.605469 186.84375 32.925781 186.199219 C 34.746094 182.476562 34.386719 178.214844 34.820312 174.1875 C 35.746094 157.941406 52.40625 151.007812 66.425781 158.8125 C 63.75 162.285156 62.960938 166.699219 62.1875 170.949219 C 61.277344 176.085938 57.042969 180 52.324219 181.550781 C 47.488281 183.082031 42.265625 183.671875 38.042969 186.746094 C 39.8125 179.945312 44.480469 173.839844 49.976562 169.589844 C 53.101562 167.21875 56.609375 165.382812 59.160156 162.289062 C 58.871094 162.097656 58.792969 162.347656 58.699219 162.441406 C 56.78125 164.40625 54.359375 165.660156 51.988281 166.957031 C 41.402344 172.65625 34.796875 183.789062 32.929688 195.667969 C 31.714844 210.554688 36.195312 225.378906 40.820312 239.34375 C 40.953125 239.117188 41.050781 239.007812 41.082031 238.878906 C 41.515625 236.941406 42.171875 235.078125 42.898438 233.234375 C 43.519531 231.65625 43.699219 229.984375 43.773438 228.300781 C 43.941406 224.464844 42.871094 220.730469 42.839844 216.902344 C 42.363281 208.601562 46.769531 202.78125 53.859375 199.304688 C 56.171875 197.753906 58.5625 196.375 60.09375 193.886719 C 66.984375 203.824219 66.644531 219.847656 56.65625 227.566406 C 54.296875 229.417969 51.691406 230.960938 49.148438 232.511719 C 48.90625 232.300781 49.046875 232.132812 49.125 231.976562 C 49.925781 230.382812 50.710938 228.777344 51.542969 227.199219 C 55.007812 220.261719 58.683594 212.839844 58.710938 204.898438 C 57.207031 214.714844 51.453125 222.867188 46.738281 231.308594 C 43.691406 236.839844 42.257812 243.722656 44.628906 249.78125 C 49.148438 262.011719 56.324219 272.933594 64.023438 283.289062 C 64.070312 283.144531 64.121094 283.074219 64.105469 283.019531 C 63.570312 280.996094 63.046875 278.964844 62.480469 276.949219 C 61.808594 274.359375 60.066406 272.324219 58.519531 270.226562 C 53.292969 263.425781 52.222656 255.992188 56.71875 248.453125 C 58.402344 245.328125 60.4375 242.324219 61.734375 239.042969 C 66.441406 245.367188 74.261719 250.261719 75.117188 258.890625 C 76.457031 266.777344 71.394531 273.527344 69.671875 280.882812 C 69.003906 280.917969 68.433594 275.78125 68.242188 274.976562 C 66.976562 266.875 69.035156 257.75 64.496094 250.476562 C 67.207031 257.929688 66.179688 265.9375 66.207031 273.71875 C 66.394531 280.703125 67.824219 288.042969 72.191406 293.609375 C 80.910156 304.105469 90.90625 313.359375 101.496094 321.855469 C 98.707031 315.058594 92.027344 310.449219 87.097656 305.128906 C 81.402344 299.292969 80.96875 290.046875 85.347656 283.292969 C 86.804688 280.742188 88.925781 278.699219 90.191406 275.992188 C 91.917969 277.128906 93.363281 278.679688 95.011719 279.945312 C 100.636719 283.902344 105.65625 289.324219 105.683594 296.710938 C 106.019531 302.761719 104.050781 308.605469 103.828125 314.613281 C 103.574219 314.722656 103.5 314.566406 103.4375 314.4375 C 103.054688 313.652344 102.652344 312.875 102.308594 312.070312 C 98.171875 302.785156 99.234375 291.230469 92.230469 283.320312 C 97.390625 291.621094 97.152344 301.675781 99.414062 310.9375 C 104.449219 328.863281 124.378906 338.097656 139.457031 345.976562 C 139.578125 345.636719 139.339844 345.503906 139.199219 345.363281 C 136.089844 341.929688 132.242188 339.375 128.648438 336.515625 C 117.585938 327.109375 121.46875 319.941406 127.160156 308.882812 C 133.597656 313.65625 141.679688 317.964844 142.464844 327.03125 C 143.121094 332.402344 142.15625 337.859375 143.378906 343.167969 C 138.734375 339.921875 135.738281 334.683594 133.714844 329.355469 C 132.472656 325.832031 131.828125 322.136719 130.785156 318.554688 C 130.722656 318.320312 130.585938 318.109375 130.355469 317.925781 C 131.140625 322.878906 131.28125 328.003906 133.355469 332.640625 C 138.8125 346.234375 149.8125 351.707031 162.769531 355.902344 C 162.785156 355.578125 162.59375 355.464844 162.453125 355.339844 C 159.105469 352.226562 154.53125 350.703125 151.71875 346.96875 C 148.800781 343.277344 147.4375 338.085938 149.121094 333.539062 C 150.480469 329.882812 152.972656 326.714844 154.042969 322.949219 C 154.335938 322.824219 154.429688 323.046875 154.53125 323.171875 C 156.554688 325.785156 159.457031 327.347656 161.964844 329.390625 C 169.722656 335.179688 167 345.09375 168.101562 353.429688 C 167.867188 353.625 167.75 353.414062 167.625 353.3125 C 164.363281 350.558594 161.402344 347.175781 159.980469 343.050781 C 158.890625 340.121094 158.519531 336.988281 157.6875 333.976562 C 157.628906 333.726562 157.515625 333.488281 157.304688 333.265625 C 157.527344 343.628906 161.800781 354.910156 172.03125 358.671875 C 177.570312 360.765625 183.496094 361.378906 189.214844 362.730469 C 189.417969 363.871094 189.332031 365.402344 189.015625 366.289062 C 178.402344 364.234375 171.984375 364.734375 163.191406 371.632812 C 157.601562 375.976562 153.347656 377.546875 146.386719 378.050781 C 151.785156 379.046875 157.4375 377.976562 161.988281 374.785156 C 164.695312 373.085938 167.371094 371.238281 170.441406 370.308594 C 170.140625 371.671875 169.410156 372.863281 168.933594 374.167969 C 168.417969 375.394531 167.941406 376.640625 167.367188 377.839844 C 165.089844 382.851562 160.152344 385.859375 154.796875 385.917969 Z M 154.796875 385.917969 "/></g></g><mask id="0c0485e43a"><g filter="url(#435ebab72c)"><rect x="0" width="842.25" y="0" height="595.499986" style="fill:#000000;fill-opacity:0.1;stroke:none;"/></g></mask></g></g></svg>